<svg width="410" height="89" viewBox="0 0 410 89" fill="none" xmlns="http://www.w3.org/2000/svg">
<path d="M88.4561 0C90.6652 0 92.4561 1.79086 92.4561 4V9.80749C92.4561 12.0166 90.6652 13.8075 88.4561 13.8075H13.7022C13.1443 13.8076 12.6918 14.2604 12.6918 14.8188L12.6908 35.3266V35.3266C12.6892 36.4437 13.5964 37.3493 14.7136 37.3493H22.2282C33.7366 37.3493 40.7967 41.5281 44.9981 46.6235C49.2337 51.7603 50.639 57.9216 50.639 61.9381C50.6391 66.1164 50.8726 68.1997 51.4698 69.5293C51.7887 70.2389 52.1939 70.7004 52.6105 71.1115C53.0333 71.5288 53.393 71.8319 53.8517 72.3668L53.8636 72.3806L54.0737 72.6098C56.2711 74.9418 59.3031 76.0587 63.0319 76.0587C67.7078 76.0586 71.475 74.2292 74.2299 70.5871L74.4805 70.2473C77.0286 66.7111 78.2704 62.3106 78.2704 57.1144V32.5C78.2704 30.2909 80.0613 28.5 82.2704 28.5H88.4561C90.6652 28.5 92.4561 30.2909 92.4561 32.5V85C92.4561 87.2091 90.6652 89 88.4561 89H83.26C81.0509 89 79.26 87.2091 79.26 85V80.118C79.26 79.5595 78.8075 79.1068 78.2497 79.1066H77.26C76.9608 79.1066 76.679 79.2388 76.4884 79.4641L76.4125 79.5669C74.5283 82.4704 72.0168 84.7878 68.8613 86.5239C65.9118 88.07 62.977 88.8967 59.1167 88.9911L58.3313 89C54.8115 88.9971 51.9171 88.5794 49.3228 87.562C46.8975 86.6108 44.68 85.1146 42.4377 82.8518L41.9897 82.3886C39.359 79.6184 38.0225 77.5459 37.3029 74.9703C36.5659 72.3322 36.4524 69.0982 36.4524 63.9164C36.4524 58.7378 35.6492 55.3502 33.1884 53.384C31.9757 52.415 30.4508 51.8686 28.6536 51.5568C27.0846 51.2847 25.2515 51.1821 23.1468 51.1608L22.2282 51.1558H13.7022C13.1445 51.156 12.6921 51.609 12.6918 52.1672V85C12.6918 87.2091 10.901 89 8.69183 89H4C1.79086 89 0 87.2091 0 85V4C0 1.79086 1.79086 0 4 0H88.4561ZM117.791 0.15605C120.001 0.15605 121.791 1.94691 121.791 4.15605V85C121.791 87.2091 120.001 89 117.791 89H111.605C109.396 89 107.605 87.2091 107.605 85V4.15605C107.605 1.94691 109.396 0.15605 111.605 0.15605H117.791ZM149.325 0.15605C151.534 0.15605 153.325 1.94691 153.325 4.15605V85C153.325 87.2091 151.534 89 149.325 89H143.138C140.929 89 139.138 87.2091 139.138 85V4.15605C139.138 1.94691 140.929 0.15605 143.138 0.15605H149.325ZM246.637 0.0572843C270.394 0.0320818 296.541 0.032615 306.132 0.133334C315.141 0.227936 321.052 7.13808 324.812 14.41C326.677 18.015 327.967 21.6265 328.81 24.3508C329.232 25.711 329.541 26.8465 329.755 27.6485C329.86 28.0439 329.946 28.3745 330.009 28.6007C330.04 28.7116 330.072 28.82 330.102 28.9068V28.9068C330.13 28.9872 330.16 29.0657 330.182 29.1479C332.178 36.7217 334.716 46.3489 336.762 54.1109C337.795 58.0296 338.703 61.4736 339.352 63.9371C339.677 65.1684 339.937 66.1552 340.116 66.834C340.206 67.1738 340.274 67.4362 340.321 67.6142C340.345 67.7026 340.363 67.7706 340.375 67.8157C340.381 67.8402 340.385 67.8538 340.388 67.867C340.39 67.8747 340.388 67.868 340.39 67.8749L340.391 67.8774C340.391 67.8777 340.391 67.8781 340.392 67.8784L340.392 67.8789C340.392 67.8795 340.392 67.8803 340.392 67.881V67.8819C340.392 67.8825 340.392 67.8831 340.393 67.8835V67.8835C340.393 67.8837 340.393 67.884 340.393 67.8843L340.449 68.0438C340.611 68.4007 340.969 68.6374 341.37 68.6374H342.236C342.676 68.6372 343.065 68.3519 343.198 67.9322L354.461 32.4704C354.988 30.8094 356.53 29.6812 358.273 29.6812H367.51C369.257 29.6812 370.802 30.8149 371.326 32.4815L382.471 67.9303C382.603 68.3513 382.994 68.6374 383.435 68.6374H384.301C384.761 68.6373 385.163 68.327 385.279 67.8819L394.447 32.6732C394.905 30.911 396.497 29.6812 398.318 29.6812H405.517C408.228 29.6812 410.153 32.3211 409.325 34.9027L392.868 86.2215C392.337 87.877 390.797 89 389.059 89H379.051C377.311 89 375.771 87.8754 375.241 86.2182L363.86 50.6225C363.743 50.2561 363.43 49.9924 363.06 49.9321L362.897 49.9193H362.155C361.769 49.9193 361.423 50.138 361.253 50.4744L361.192 50.6255L349.927 86.2073C349.4 87.87 347.857 89 346.113 89H336.133C334.389 89 332.845 87.872 332.33 86.2052C328.832 74.8637 325.134 61.2602 322.216 50.0931C320.605 43.9247 319.231 38.5036 318.261 34.6254C317.776 32.6867 317.391 31.1337 317.128 30.0654C316.997 29.5313 316.895 29.118 316.827 28.8387C316.793 28.6992 316.766 28.5929 316.749 28.5216C316.74 28.486 316.735 28.4586 316.73 28.4407C316.728 28.4323 316.727 28.426 316.726 28.4216C316.725 28.4211 316.725 28.4207 316.725 28.4204V28.4204C316.725 28.4201 316.724 28.4197 316.724 28.4192C316.723 28.4119 316.722 28.4031 316.72 28.3932C316.712 28.3612 316.702 28.3152 316.688 28.2569C316.661 28.1405 316.62 27.9734 316.565 27.7631C316.453 27.3418 316.28 26.7451 316.034 26.0317C315.544 24.6086 314.756 22.7021 313.569 20.7873C311.197 16.9614 307.134 12.9769 300.586 12.9769C294.524 12.9769 273.687 12.9704 254.365 12.964C244.705 12.9608 235.423 12.9575 228.557 12.9551C225.123 12.9539 222.294 12.9529 220.323 12.9522C219.337 12.9518 218.566 12.9514 218.041 12.9512H201.649C198.946 12.9512 196.676 13.7929 194.932 15.523L194.591 15.8806L194.589 15.8826C192.887 17.7724 192.102 20.3531 192.102 23.4856V29.1409C192.102 29.6995 192.555 30.1523 193.113 30.1523H202.33C204.539 30.1523 206.33 31.9431 206.33 34.1523V37.9815C206.33 40.1906 204.539 41.9815 202.33 41.9815H193.113C192.555 41.9815 192.102 42.4343 192.102 42.9928V85C192.102 87.2091 190.311 89 188.102 89H181.916C179.706 89 177.916 87.2091 177.916 85V42.9928C177.916 42.4343 177.463 41.9815 176.905 41.9815H170.904C168.695 41.9815 166.904 40.1906 166.904 37.9815V34.1523C166.904 31.9431 168.695 30.1523 170.904 30.1523H176.905C177.463 30.1522 177.916 29.6994 177.916 29.1409V23.7325C177.916 15.9132 179.968 10.109 183.922 6.15213C187.967 2.18565 193.784 0.133375 201.525 0.133334H201.589C201.63 0.133238 201.693 0.132534 201.774 0.132346C201.936 0.131971 202.177 0.132072 202.492 0.131359C203.122 0.129932 204.049 0.127991 205.235 0.125433C207.608 0.120314 211.02 0.112567 215.174 0.104692C223.482 0.0889424 234.76 0.0698838 246.637 0.0572843ZM232.311 85C232.311 87.2091 230.52 89 228.311 89H222.249C220.039 89 218.249 87.2091 218.249 85V30.8293C218.249 28.6227 220.035 26.8329 222.242 26.8293L228.304 26.8195C230.516 26.816 232.311 28.6079 232.311 30.8195V85ZM276.669 25.7236C282.696 25.7236 288.09 27.0869 292.874 29.7967L293.319 30.0545C297.892 32.7454 301.488 36.4415 304.118 41.1587L304.122 41.1647C306.833 45.9462 308.197 51.337 308.197 57.3613C308.197 63.3827 306.834 68.8155 304.122 73.6814C301.408 78.4688 297.664 82.2128 292.874 84.9259C288.09 87.6357 282.696 89 276.669 89C270.747 88.9999 265.463 87.7184 260.791 85.1758L260.341 84.9259C255.551 82.2128 251.806 78.469 249.092 73.6814C246.38 68.8155 245.018 63.3827 245.018 57.3613C245.018 51.2521 246.383 45.8208 249.093 41.0412L249.349 40.5958C252.041 36.0208 255.701 32.4252 260.341 29.7967L260.791 29.5468C265.463 27.0042 270.747 25.7237 276.669 25.7236ZM276.669 38.6649C273.719 38.665 270.953 39.3586 268.384 40.742L267.873 41.0274C265.228 42.528 263.125 44.7273 261.56 47.5894L261.273 48.1227C259.884 50.8139 259.204 53.9027 259.204 57.3613C259.204 61.0514 259.978 64.3561 261.555 67.2458L261.56 67.2567C263.127 70.0403 265.228 72.233 267.86 73.8118C267.872 73.8184 267.883 73.8253 267.894 73.8315L268.405 74.1012C270.97 75.4059 273.729 76.0577 276.669 76.0577C279.727 76.0577 282.58 75.3136 285.208 73.8246L285.217 73.8187C287.934 72.2418 290.083 70.0484 291.654 67.2567L291.659 67.2458C293.236 64.3561 294.011 61.0514 294.011 57.3613C294.011 53.6721 293.236 50.4033 291.653 47.5894C290.086 44.7232 287.94 42.5254 285.216 41.0274C282.589 39.4545 279.733 38.6649 276.669 38.6649Z" fill="white"/>
</svg>
