<svg width="2913" height="8893" viewBox="0 0 2913 8893" fill="none" xmlns="http://www.w3.org/2000/svg">
<g filter="url(#filter0_d_10_15)">
<path d="M576.949 71.3381C562.776 79.3742 557.802 97.3779 565.838 111.551C573.874 125.723 591.877 130.698 606.05 122.662L576.949 71.3381ZM876 32L872.315 61.269L876 32ZM1130 172.5L1109.45 193.668L1130 172.5ZM1719 225.5L1743.32 208.807L1719 225.5ZM2408 503.5L2407.13 532.987L2407.91 533.01L2408.7 532.992L2408 503.5ZM2295 1481.5L2297.21 1452.08L2290.56 1451.58L2284.35 1453.99L2295 1481.5ZM1383.5 1514L1410.34 1526.25L1411.49 1523.72L1412.15 1521.02L1383.5 1514ZM1574.5 1481.5L1559.56 1506.94L1559.56 1506.94L1574.5 1481.5ZM382.5 2053.5L392.024 2081.42L382.5 2053.5ZM591.499 3214L575.664 3189.11L575.664 3189.11L591.499 3214ZM2155.5 3214L2170.74 3188.74L2155.5 3214ZM2408 4270L2382.06 4255.95L2381.52 4256.94L2381.06 4257.98L2408 4270ZM835 4568L812.931 4548.42L811.215 4550.36L809.862 4552.56L835 4568ZM1486.5 4668.5L1506.7 4647L1486.5 4668.5ZM591.499 97L606.05 122.662C628.248 110.075 669.399 91.2331 718.313 77.3106C767.375 63.3461 822.108 54.948 872.315 61.269L876 32L879.685 2.73107C818.691 -4.94796 755.425 5.4039 702.161 20.5645C648.75 35.767 603.25 56.4249 576.949 71.3381L591.499 97ZM876 32L872.315 61.269C1000.07 77.3536 1075.91 161.105 1109.45 193.668L1130 172.5L1150.55 151.332C1119.2 120.9 1029.93 21.6464 879.685 2.73107L876 32ZM1130 172.5L1109.45 193.668C1121.96 205.81 1123.59 218.257 1120.94 228.917C1117.9 241.179 1109.14 250.986 1101.05 254.758L1113.5 281.5L1125.95 308.242C1151.23 296.469 1171.14 271.584 1178.2 243.136C1185.66 213.086 1178.85 178.805 1150.55 151.332L1130 172.5ZM1113.5 281.5L1101.05 254.758C1090.41 259.714 1076.03 261.063 1064.64 257.061C1055.23 253.752 1045.62 246.197 1042.01 226.637L1013 232L983.992 237.363C991.376 277.303 1015.34 302.27 1045.08 312.723C1072.84 322.482 1103.22 318.831 1125.95 308.242L1113.5 281.5ZM1013 232L1042.01 226.637C1040.93 220.813 1042.34 209.902 1050.13 193.674C1057.58 178.172 1069.22 161.205 1083.02 145.004C1096.76 128.876 1111.89 114.375 1125.61 103.638C1140.41 92.056 1150.14 87.5712 1153.42 86.9L1147.5 58L1141.58 29.1C1124.11 32.6788 1105.28 44.6315 1089.25 57.1744C1072.14 70.5627 1054.18 87.8742 1038.11 106.746C1022.09 125.545 1007.21 146.765 996.945 168.139C987.033 188.785 979.568 213.437 983.992 237.363L1013 232ZM1147.5 58L1153.42 86.9C1174.67 82.5477 1268.34 59.6921 1378.56 69.3255C1488.36 78.9231 1611.1 120.413 1694.68 242.193L1719 225.5L1743.32 208.807C1646.4 67.5869 1504.14 21.0769 1383.69 10.5495C1263.66 0.0578936 1161.83 24.9523 1141.58 29.1L1147.5 58ZM1719 225.5L1694.68 242.193C1772.43 355.485 1909.92 426.352 2045.09 469.621C2181.1 513.155 2320.03 530.418 2407.13 532.987L2408 503.5L2408.87 474.013C2326.47 471.582 2193.1 455.045 2063.08 413.429C1932.24 371.548 1809.97 305.915 1743.32 208.807L1719 225.5ZM2408 503.5L2408.7 532.992C2468.42 531.576 2538.48 535.919 2605.19 549.199C2672.28 562.556 2733.73 584.509 2778.08 616.81C2821.55 648.46 2847.71 689.138 2848.98 742.752C2850.3 798.148 2825.22 872.586 2753.23 970.528L2777 988L2800.77 1005.47C2876.38 902.614 2909.73 815.36 2907.97 741.351C2906.17 665.56 2867.75 609.119 2812.82 569.115C2758.77 529.762 2687.99 505.526 2616.71 491.335C2545.05 477.068 2470.58 472.508 2407.3 474.008L2408 503.5ZM2777 988L2753.23 970.528C2606.27 1170.46 2496.4 1292.99 2419.31 1364.83C2380.73 1400.79 2350.89 1423.55 2329.19 1436.96C2318.33 1443.67 2310.01 1447.72 2304.04 1449.97C2297.6 1452.39 2295.8 1451.98 2297.21 1452.08L2295 1481.5L2292.79 1510.92C2303.62 1511.73 2314.72 1508.98 2324.79 1505.19C2335.35 1501.23 2347.16 1495.21 2360.19 1487.16C2386.27 1471.05 2419.22 1445.57 2459.54 1407.99C2540.24 1332.78 2652.53 1207.14 2800.77 1005.47L2777 988ZM2295 1481.5L2284.35 1453.99C2212.21 1481.93 2090.71 1523.04 1961.8 1555.12C1832.13 1587.4 1698.2 1609.7 1599.78 1602.09L1597.5 1631.5L1595.22 1660.91C1703.6 1669.3 1845.25 1644.93 1976.05 1612.38C2107.6 1579.63 2231.46 1537.74 2305.65 1509.01L2295 1481.5ZM1597.5 1631.5L1599.78 1602.09C1498.36 1594.24 1448.28 1573.65 1425.68 1555.79C1405.22 1539.63 1409.37 1528.36 1410.34 1526.25L1383.5 1514L1356.66 1501.75C1342.79 1532.14 1350.55 1571.62 1389.1 1602.08C1425.51 1630.85 1489.84 1652.76 1595.22 1660.91L1597.5 1631.5ZM1383.5 1514L1412.15 1521.02C1415.7 1506.53 1426.49 1488.91 1445.89 1481.11C1464.62 1473.57 1499.84 1471.85 1559.56 1506.94L1574.5 1481.5L1589.44 1456.06C1521.16 1415.95 1466.04 1409.4 1423.86 1426.37C1382.34 1443.07 1361.63 1479.31 1354.85 1506.98L1383.5 1514ZM1574.5 1481.5L1559.56 1506.94C1594.91 1527.7 1607.27 1548.1 1610.53 1564.54C1613.93 1581.67 1608.94 1601.91 1594.52 1624.87C1565.22 1671.52 1505.7 1715.12 1462.65 1735.94L1475.5 1762.5L1488.35 1789.06C1537.3 1765.38 1607.28 1715.48 1644.48 1656.25C1663.31 1626.28 1675.82 1590.49 1668.41 1553.07C1660.85 1514.96 1634.09 1482.3 1589.44 1456.06L1574.5 1481.5ZM1475.5 1762.5L1462.65 1735.94C1453.63 1740.31 1431.71 1747.9 1397.46 1758.22C1364.07 1768.29 1321.03 1780.35 1271.42 1793.76C1172.23 1820.55 1047.49 1852.48 922.497 1884.07C673.956 1946.88 421.454 2009.04 372.976 2025.58L382.5 2053.5L392.024 2081.42C437.479 2065.92 685.477 2004.83 936.953 1941.27C1061.97 1909.68 1187.12 1877.65 1286.81 1850.72C1336.64 1837.25 1380.3 1825.02 1414.49 1814.71C1447.81 1804.67 1474.37 1795.82 1488.35 1789.06L1475.5 1762.5ZM382.5 2053.5L372.976 2025.58C252.818 2066.57 165.796 2123.25 106.469 2192.81C46.978 2262.57 16.8923 2343.45 7.74856 2430C-10.3459 2601.26 53.4712 2796.37 133.026 2979.78C173.042 3072.04 217.686 3162.71 259.138 3247.16C300.768 3331.98 338.988 3410.15 366.987 3478.74C395.288 3548.07 411.53 3603.91 411.978 3644.81C412.197 3664.78 408.596 3679.12 402.594 3689.37C396.878 3699.13 387.668 3707.46 371.995 3713.43L382.5 3741L393.005 3768.57C419.645 3758.41 440.18 3741.94 453.503 3719.19C466.54 3696.94 471.27 3671.08 470.975 3644.16C470.395 3591.28 450.225 3526.54 421.611 3456.45C392.697 3385.61 353.503 3305.52 312.102 3221.17C270.523 3136.45 226.518 3047.06 187.154 2956.3C107.946 2773.69 50.0701 2590.97 66.422 2436.19C74.5015 2359.72 100.674 2290.53 151.36 2231.1C202.209 2171.48 279.283 2119.88 392.024 2081.42L382.5 2053.5ZM382.5 3741L371.995 3713.43C331.218 3728.97 304.088 3733.31 287.386 3731.93C272.624 3730.71 269.164 3725.7 267.361 3721.59C264.185 3714.35 262.872 3699.93 268.565 3675.93C274.05 3652.82 285.08 3624.81 300.998 3593.57C332.775 3531.19 382.089 3459.67 437.637 3394.75C493.326 3329.67 553.826 3272.93 607.334 3238.89L591.499 3214L575.664 3189.11C515.373 3227.47 450.535 3288.93 392.809 3356.39C334.941 3424.02 282.762 3499.39 248.427 3566.78C231.288 3600.43 218.108 3633.03 211.159 3662.31C204.419 3690.72 202.451 3720.48 213.329 3745.29C225.582 3773.23 250.887 3788.12 282.532 3790.73C312.237 3793.18 349.157 3785.28 393.005 3768.57L382.5 3741ZM591.499 3214L607.334 3238.89C885.498 3061.92 1531.15 2871.73 2140.26 3239.26L2155.5 3214L2170.74 3188.74C1536.85 2806.27 866.501 3004.08 575.664 3189.11L591.499 3214ZM2155.5 3214L2140.26 3239.26C2380.03 3383.93 2469.28 3582.25 2484.93 3771.8C2500.7 3963.01 2441.47 4146.3 2382.06 4255.95L2408 4270L2433.94 4284.05C2497.53 4166.7 2560.65 3971.99 2543.73 3766.95C2526.67 3560.25 2428.17 3344.07 2170.74 3188.74L2155.5 3214ZM2408 4270L2381.06 4257.98C2318.36 4398.46 2188.72 4606.01 2004.87 4769.71C1821.22 4933.23 1586.18 5050.8 1310.92 5018.7L1307.5 5048L1304.08 5077.3C1601.62 5112 1852.75 4984.15 2044.1 4813.77C2235.27 4643.56 2369.47 4428.71 2434.94 4282.02L2408 4270ZM1307.5 5048L1310.92 5018.7C1027.74 4985.67 900.951 4900.67 851.356 4817.41C802.169 4734.85 823.093 4643.76 860.138 4583.44L835 4568L809.862 4552.56C765.74 4624.41 736.514 4739.92 800.669 4847.61C864.415 4954.62 1014.46 5043.53 1304.08 5077.3L1307.5 5048ZM835 4568L857.068 4587.58C893.123 4546.93 967.452 4500.13 1070.8 4499.02C1173.54 4497.92 1308.77 4542.02 1466.3 4690L1486.5 4668.5L1506.7 4647C1341.03 4491.38 1191.76 4438.73 1070.17 4440.03C949.198 4441.32 859.377 4496.07 812.931 4548.42L835 4568ZM1486.5 4668.5L1466.3 4690C1665.12 4876.76 1688.14 5009.36 1659.73 5093.64C1630.2 5181.27 1540.13 5233.7 1479.57 5248.32L1486.5 5277L1493.43 5305.68C1565.37 5288.3 1677.3 5226.23 1715.64 5112.48C1755.11 4995.39 1711.88 4839.74 1506.7 4647L1486.5 4668.5ZM1486.5 5277L1479.57 5248.32C1464.83 5251.88 1437.89 5255.63 1399.21 5260.98C1361.41 5266.21 1314.27 5272.74 1261.55 5281.84C1156.21 5300 1027.63 5328.52 904.039 5377.99C780.596 5427.39 660.288 5498.41 573.402 5602.64C485.891 5707.63 433.728 5844.65 444.554 6022.29L474 6020.5L503.445 6018.71C493.521 5855.85 540.983 5733.68 618.722 5640.42C697.086 5546.41 807.654 5480.11 925.961 5432.76C1044.12 5385.48 1168.16 5357.81 1271.58 5339.98C1323.23 5331.07 1369.49 5324.65 1407.29 5319.43C1444.2 5314.32 1475.04 5310.12 1493.43 5305.68L1486.5 5277ZM474 6020.5L444.554 6022.29C465.657 6368.59 577.872 6574.81 714.538 6694.1C850.664 6812.92 1007.04 6842 1110.5 6842L1110.5 6812.5L1110.5 6783C1016.96 6783 875.836 6756.58 753.337 6649.65C631.378 6543.19 523.842 6353.41 503.445 6018.71L474 6020.5ZM1110.5 6812.5L1110.5 6842C1140.66 6842 1181.7 6830.76 1227.54 6814.89C1274.47 6798.64 1330.5 6776.01 1392.18 6750.51C1516.11 6699.28 1664.1 6635.93 1815.04 6585.08C1966.26 6534.14 2117.77 6496.7 2248.3 6496.06C2378.47 6495.43 2482.84 6531.22 2548.11 6621.31L2572 6604L2595.89 6586.69C2515.17 6475.28 2388.47 6436.38 2248.01 6437.06C2107.92 6437.74 1949.24 6477.61 1796.21 6529.17C1642.9 6580.82 1492.58 6645.16 1369.64 6695.99C1307.88 6721.52 1253.33 6743.52 1208.23 6759.14C1162.04 6775.13 1129.59 6783 1110.5 6783L1110.5 6812.5ZM2572 6604L2548.11 6621.31C2618.42 6718.35 2634.02 6793.9 2621.45 6849.52C2608.96 6904.82 2566.74 6948.65 2502.89 6978.31C2373.64 7038.34 2171.74 7032.07 2030.91 6953.26L2016.5 6979L2002.09 7004.74C2158.77 7092.43 2380.61 7100.16 2527.74 7031.82C2602.08 6997.29 2661.2 6941.34 2679 6862.52C2696.73 6784.04 2671.58 6691.15 2595.89 6586.69L2572 6604ZM2016.5 6979L2030.91 6953.26C1720.64 6779.61 1316.5 6853.58 1016.24 7051.88L1032.5 7076.5L1048.76 7101.12C1337.5 6910.42 1717.36 6845.39 2002.09 7004.74L2016.5 6979ZM1032.5 7076.5L1016.24 7051.88C863.746 7152.6 691.803 7354.8 572.762 7576.42C454.332 7796.9 383.306 8045.9 445.944 8238.62L474 8229.5L502.055 8220.38C447.194 8051.59 508.167 7821.35 624.738 7604.33C740.696 7388.45 906.753 7194.9 1048.76 7101.12L1032.5 7076.5ZM474 8229.5L445.944 8238.62C474.805 8327.41 498.813 8412.28 529.87 8487.11C561.309 8562.87 601.012 8631.26 663.259 8688.95C787.648 8804.24 995.011 8870.43 1382.43 8884.48L1383.5 8855L1384.57 8825.52C999.989 8811.57 811.352 8745.76 703.365 8645.68C649.425 8595.68 613.847 8535.54 584.364 8464.5C554.499 8392.54 531.944 8312.34 502.055 8220.38L474 8229.5Z" fill="url(#paint0_linear_10_15)"/>
</g>
<defs>
<filter id="filter0_d_10_15" x="0.655029" y="0.132812" width="2911.38" height="8892.35" filterUnits="userSpaceOnUse" color-interpolation-filters="sRGB">
<feFlood flood-opacity="0" result="BackgroundImageFix"/>
<feColorMatrix in="SourceAlpha" type="matrix" values="0 0 0 0 0 0 0 0 0 0 0 0 0 0 0 0 0 0 127 0" result="hardAlpha"/>
<feOffset dy="4"/>
<feGaussianBlur stdDeviation="2"/>
<feComposite in2="hardAlpha" operator="out"/>
<feColorMatrix type="matrix" values="0 0 0 0 0 0 0 0 0 0 0 0 0 0 0 0 0 0 0.25 0"/>
<feBlend mode="normal" in2="BackgroundImageFix" result="effect1_dropShadow_10_15"/>
<feBlend mode="normal" in="SourceGraphic" in2="effect1_dropShadow_10_15" result="shape"/>
</filter>
<linearGradient id="paint0_linear_10_15" x1="1573.66" y1="29.6324" x2="1573.66" y2="8855" gradientUnits="userSpaceOnUse">
<stop stop-color="#FFCC00"/>
<stop offset="0.247442" stop-color="#FF7600"/>
<stop offset="0.496196" stop-color="#EA8221"/>
<stop offset="0.748098" stop-color="#F352F0"/>
<stop offset="1" stop-color="#FF0080"/>
</linearGradient>
</defs>
</svg>
